<?xml version="1.0" encoding="utf-8"?>
<!-- Generator: Adobe Illustrator 24.1.0, SVG Export Plug-In . SVG Version: 6.00 Build 0)  -->
<svg version="1.1" id="Calque_1" xmlns="http://www.w3.org/2000/svg" xmlns:xlink="http://www.w3.org/1999/xlink" x="0px" y="0px"
	 viewBox="0 0 147.1 39.1" style="enable-background:new 0 0 147.1 39.1;" xml:space="preserve">
<style type="text/css">
	.st0{stroke:#000000;}
</style>
<g id="Logo" transform="translate(-443.948 -909.163)">
	<g id="MBN" transform="translate(444.448 909.663)">
		<g id="Groupe_1">
			<path id="Tracé_1" class="st0" d="M55.2,36.1c0,0.3,0,0.5-0.1,0.8c-0.1,0.3-0.2,0.4-0.3,0.4c-1.8,0-3.5,0-5.4-0.1
				S45.9,37,44.3,37c-1.6,0-3.3,0-5.1,0.1s-3.5,0.1-5.2,0.1c-0.1,0-0.2-0.1-0.3-0.4c-0.1-0.2-0.2-0.5-0.2-0.8c0-0.2,0.1-0.5,0.1-0.7
				c0.1-0.3,0.2-0.4,0.3-0.5c1.4,0,2.8-0.5,4-1.3c0.8-0.8,1.1-2,0.9-3.2l-1-23.2L26.2,37.7c0,0.1-0.2,0.2-0.5,0.3
				c-0.3,0.1-0.7,0.2-1.1,0.2c-0.4,0-0.8,0-1.1-0.2c-0.2-0.1-0.3-0.2-0.5-0.3L11.1,8.4l-1.3,22c-0.2,1.2,0.1,2.3,0.9,3.2
				c0.7,0.7,2.1,1.1,4.2,1.3c0.1,0,0.2,0.2,0.2,0.5c0,0.2,0.1,0.5,0.1,0.7c0,0.3-0.1,0.5-0.2,0.8c-0.1,0.3-0.2,0.4-0.3,0.4
				c-1.4,0-2.6,0-3.7-0.1C9.9,37,8.7,37,7.4,37c-1.3,0-2.5,0-3.6,0.1s-2.3,0.1-3.5,0.1c-0.1,0-0.2-0.2-0.3-0.5C0,36.6,0,36.3,0,36.1
				c0-0.3,0.1-0.5,0.2-0.8c0.1-0.2,0.2-0.4,0.3-0.4c1.5-0.1,3-0.5,4.4-1.3c0.9-0.8,1.4-2,1.4-3.2L8.5,6.9c0.2-1.2-0.1-2.3-1-3.2
				C6.3,2.9,4.8,2.4,3.3,2.4c-0.1,0-0.2-0.2-0.3-0.5C3,1.6,3,1.4,2.9,1.2C3,0.9,3,0.6,3.1,0.4C3.3,0.1,3.4,0,3.5,0
				c0.9,0,2.1,0,3.6,0.1c1.5,0.1,2.6,0.1,3.4,0.1c1,0,2.3,0,4-0.1C16.1,0,17.5,0,18.6,0l9.8,24.2L37.8,0c1.4,0,2.8,0,4.2,0.1
				s2.6,0.1,3.6,0.1c1.1,0,2.3,0,3.8-0.1S52.1,0,53.2,0c0.1,0,0.2,0.1,0.3,0.4c0.1,0.2,0.1,0.5,0.1,0.8c0,0.2,0,0.5-0.1,0.7
				c-0.1,0.3-0.2,0.5-0.3,0.5c-2,0.2-3.3,0.7-4,1.3c-0.8,0.9-1.1,2-0.9,3.2l1.1,23.5c0,1.2,0.4,2.3,1.1,3.2c0.7,0.7,2.1,1.1,4.2,1.3
				c0.1,0,0.2,0.2,0.3,0.5C55.1,35.6,55.2,35.8,55.2,36.1z"/>
			<path id="Tracé_2" class="st0" d="M96.7,26.9c0,2.8-1.2,5.5-3.3,7.3c-2.2,2-6.1,3-11.9,3c-1.8,0-3.7,0-5.8-0.1
				c-2.1-0.1-4-0.1-5.6-0.1c-1.6,0-3.4,0-5.4,0.1s-3.8,0.1-5.6,0.1c-0.1,0-0.2-0.1-0.3-0.4c-0.1-0.2-0.1-0.5-0.1-0.8
				c0-0.2,0.1-0.5,0.1-0.7c0.1-0.3,0.2-0.4,0.3-0.5c2.1-0.2,3.5-0.7,4.2-1.3c0.7-0.9,1.1-2,1-3.2V6.9c0.1-1.1-0.2-2.3-1-3.2
				c-0.7-0.6-2-1.1-4.2-1.3c-0.1,0-0.2-0.2-0.3-0.5c-0.1-0.2-0.1-0.5-0.1-0.7c0-0.3,0.1-0.5,0.1-0.8C59,0.1,59.1,0,59.2,0
				c1.8,0,3.6,0,5.4,0.1s3.6,0.1,5.3,0.1c1.6,0,3.4,0,5.2-0.1C76.9,0,78.7,0,80.4,0c5,0,8.6,0.8,10.8,2.3c3.3,2,4.4,6.2,2.4,9.5
				c-0.4,0.7-1,1.4-1.7,1.9c-1.8,1.6-4.4,2.6-7.8,3.1c4.1,0.2,7.2,1.3,9.3,3.3C95.4,21.9,96.6,24.3,96.7,26.9z M83.6,9.1
				c0-2.3-0.4-3.9-1.3-4.9c-1.1-1.1-2.6-1.6-4.2-1.5h-0.6c-0.6,0-1.3,0.1-1.8,0.5c-0.5,0.5-0.8,1.2-0.7,2v10.8h2.8
				c2.1,0,3.6-0.5,4.4-1.6C83.1,13.2,83.6,11.5,83.6,9.1L83.6,9.1z M85.6,26.4c0.1-2.1-0.5-4.2-1.7-5.9c-1.3-1.4-3.1-2.1-5-2h-4
				v12.8c-0.1,1,0.3,1.9,1,2.6c0.8,0.6,1.7,0.9,2.6,0.8c1.8,0,3.5-0.7,4.8-2C84.9,31.4,85.6,29.3,85.6,26.4L85.6,26.4z"/>
			<path id="Tracé_3" class="st0" d="M146.1,1.2c0,0.2-0.1,0.5-0.1,0.7c-0.1,0.3-0.2,0.5-0.3,0.5c-1.5,0-3,0.5-4.2,1.3
				c-0.9,0.8-1.3,2-1.3,3.2l-0.6,30.6c0,0.1-0.1,0.2-0.3,0.3c-0.4,0.1-0.8,0.2-1.2,0.2c-0.3,0-0.7,0-1-0.1c-0.2,0-0.5-0.2-0.6-0.3
				l-26-26.3l-0.3,19.1c-0.2,1.2,0.3,2.3,1.1,3.1c1.3,0.9,2.8,1.3,4.3,1.4c0.1,0,0.2,0.1,0.3,0.4c0.1,0.3,0.1,0.5,0.1,0.8
				c0,0.3-0.1,0.5-0.1,0.8c-0.1,0.3-0.2,0.4-0.3,0.4c-1.4,0-2.6,0-3.8-0.1s-2.3-0.1-3.6-0.1c-1.3,0-2.5,0-3.6,0.1
				c-1.1,0.1-2.2,0.1-3.5,0.1c-0.1,0-0.2-0.1-0.3-0.4c-0.1-0.2-0.1-0.5-0.1-0.8c0-0.3,0.1-0.5,0.2-0.8c0.1-0.2,0.2-0.4,0.3-0.4
				c1.5,0,3-0.5,4.2-1.3c0.8-0.8,1.3-2,1.2-3.2l0.9-21.8c0.1-1.6-0.3-3.1-1.2-4.4c-0.8-1-2.4-1.6-4.7-1.8c-0.1,0-0.2-0.2-0.3-0.5
				c-0.1-0.2-0.1-0.5-0.1-0.7c0-0.3,0-0.5,0.1-0.8c0.1-0.3,0.2-0.4,0.3-0.4c0.9,0,1.9,0,3.1,0.1s2.1,0.1,2.9,0.1
				c0.8,0,1.6,0,2.4-0.1c1-0.1,2-0.1,2.9-0.1l24,24.2V6.9c0.1-1.2-0.4-2.4-1.3-3.2c-1.3-0.8-2.8-1.3-4.4-1.3c-0.1,0-0.2-0.2-0.3-0.4
				c-0.1-0.2-0.1-0.5-0.1-0.8c0-0.3,0.1-0.5,0.1-0.8c0.1-0.3,0.2-0.4,0.3-0.4c1.4,0,2.6,0,3.6,0.1c1,0.1,2.1,0.1,3.3,0.1
				c1.3,0,2.6,0,3.8-0.1c1.3-0.1,2.5-0.1,3.6-0.1c0.1,0,0.2,0.1,0.3,0.4C146.1,0.7,146.1,0.9,146.1,1.2z"/>
		</g>
	</g>
</g>
</svg>
