<?xml version="1.0" encoding="utf-8"?>
<!-- Generator: Adobe Illustrator 24.1.0, SVG Export Plug-In . SVG Version: 6.00 Build 0)  -->
<svg version="1.1" id="Calque_1" xmlns="http://www.w3.org/2000/svg" xmlns:xlink="http://www.w3.org/1999/xlink" x="0px" y="0px"
	 viewBox="0 0 320.1 235.4" style="enable-background:new 0 0 320.1 235.4;" xml:space="preserve">
<style type="text/css">
	.st0{stroke:#000000;}
	.st1{stroke:#000000;stroke-width:5;stroke-miterlimit:10;}
</style>
<g id="Logo" transform="translate(-443.948 -887.5)">
	<g id="MBN" transform="translate(444.448 966.306)">
		<g id="Groupe_1">
			<path id="Tracé_1" class="st0" d="M120.6,78.8c0,0.6-0.1,1.1-0.2,1.6c-0.2,0.6-0.4,0.9-0.6,0.9c-3.8,0-7.7-0.1-11.7-0.3
				s-7.8-0.3-11.4-0.3c-3.6,0-7.3,0.1-11.1,0.3c-3.8,0.2-7.6,0.3-11.4,0.3c-0.2,0-0.5-0.3-0.7-0.9c-0.2-0.5-0.3-1.1-0.4-1.7
				c0-0.5,0.1-1,0.3-1.5c0.2-0.6,0.4-1,0.6-1.1c4.2-0.5,7.1-1.4,8.7-2.9s2.3-3.8,2-6.9l-2.1-50.6L57.1,82.3
				c-0.1,0.2-0.5,0.4-1.2,0.6c-0.8,0.2-1.5,0.4-2.3,0.4c-0.8,0-1.7-0.1-2.5-0.4c-0.4-0.1-0.7-0.3-1.1-0.6L24.2,18.4l-2.9,48
				c-0.2,3.2,0.4,5.5,2,7c1.6,1.4,4.7,2.4,9.2,2.9c0.2,0,0.4,0.3,0.5,1c0.1,0.5,0.2,1.1,0.2,1.6c0,0.6-0.1,1.2-0.4,1.7
				c-0.2,0.6-0.5,0.9-0.7,0.9c-3,0-5.7-0.1-8.1-0.3c-2.5-0.2-5.1-0.3-7.8-0.3c-2.8,0-5.4,0.1-7.8,0.3s-5,0.3-7.6,0.3
				c-0.2,0-0.4-0.3-0.6-1c-0.1-0.5-0.2-1-0.2-1.6c0-0.6,0.1-1.1,0.4-1.6c0.3-0.5,0.5-0.9,0.8-0.9c4.6-0.5,7.8-1.5,9.5-2.9
				s2.8-3.7,3.1-7L18.6,15c0.2-3.3-0.5-5.6-2.1-7c-1.6-1.4-4.7-2.3-9.2-2.9C7,5.1,6.8,4.7,6.7,4.1c-0.1-0.5-0.2-1-0.2-1.5
				c0-0.6,0.1-1.2,0.4-1.7C7.1,0.3,7.4,0,7.6,0c2,0,4.6,0.1,7.8,0.3c3.3,0.2,5.8,0.3,7.5,0.3c2.2,0,5.1-0.1,8.7-0.3
				C35.2,0.1,38.2,0,40.7,0l21.4,52.9L82.7,0c3,0,6,0.1,9.2,0.3c3.2,0.2,5.8,0.3,7.8,0.3c2.3,0,5.1-0.1,8.3-0.3s6-0.3,8.3-0.3
				c0.2,0,0.4,0.3,0.6,0.9c0.2,0.5,0.3,1.1,0.3,1.6c0,0.5-0.1,1.1-0.2,1.6c-0.2,0.7-0.4,1-0.6,1c-4.3,0.5-7.2,1.4-8.7,2.9
				c-1.5,1.5-2.2,3.8-2,6.9l2.5,51.4c0.2,3.1,1,5.4,2.4,6.9c1.4,1.5,4.5,2.5,9.2,2.9c0.2,0,0.4,0.3,0.6,1
				C120.5,77.7,120.6,78.3,120.6,78.8z"/>
			<path id="Tracé_2" class="st0" d="M211.2,58.8c0.1,6.1-2.5,11.9-7.1,16c-4.8,4.4-13.4,6.6-26,6.6c-3.8,0-8-0.1-12.6-0.3
				c-4.6-0.2-8.6-0.3-12.2-0.3c-3.6,0-7.5,0.1-11.8,0.3s-8.4,0.3-12.2,0.3c-0.2,0-0.4-0.3-0.6-0.9c-0.2-0.5-0.3-1.1-0.3-1.6
				c0-0.5,0.1-1,0.3-1.5c0.2-0.6,0.4-1,0.6-1.1c4.6-0.5,7.6-1.5,9.1-2.9s2.2-3.7,2.2-6.9V15c0-3.2-0.7-5.5-2.2-6.9s-4.5-2.4-9.1-2.9
				c-0.2-0.1-0.4-0.4-0.6-1.1c-0.2-0.5-0.3-1-0.3-1.5c0-0.6,0.1-1.1,0.3-1.6c0.2-0.6,0.4-0.9,0.6-0.9c3.8,0,7.8,0.1,11.8,0.3
				c4.1,0.2,7.9,0.3,11.5,0.3c3.6,0,7.4-0.1,11.4-0.3c4-0.2,7.9-0.3,11.8-0.3c10.8,0,18.7,1.7,23.7,5.1c4.9,3.4,7.4,7.8,7.4,13.2
				c0,4.4-2,8.4-5.9,11.8c-3.9,3.4-9.6,5.7-17.1,6.8c8.9,0.4,15.7,2.8,20.4,7.3S211.2,53.5,211.2,58.8z M182.5,19.8
				c0-5-0.9-8.6-2.8-10.8c-1.9-2.2-4.9-3.3-9.1-3.3h-1.4c-1.4-0.1-2.8,0.3-4,1.1c-1,0.7-1.5,2.1-1.5,4.3v23.6h6.2
				c4.5,0,7.8-1.2,9.7-3.6C181.5,28.8,182.5,25,182.5,19.8L182.5,19.8z M187.1,57.6c0-5.6-1.2-9.9-3.7-12.8
				c-2.5-2.9-6.1-4.4-10.9-4.4h-8.8v27.9c0,2.6,0.7,4.4,2.1,5.6c1.6,1.2,3.7,1.9,5.7,1.8c3.9-0.1,7.7-1.6,10.6-4.3
				C185.4,68.5,187.1,63.9,187.1,57.6L187.1,57.6z"/>
			<path id="Tracé_3" class="st0" d="M319.1,2.6c0,0.5-0.1,1.1-0.3,1.6c-0.2,0.7-0.4,1-0.6,1c-4.4,0.5-7.4,1.4-9.2,2.9
				c-1.8,1.4-2.7,3.8-2.8,7L305,81.8c0,0.2-0.3,0.5-0.8,0.8c-0.8,0.3-1.7,0.5-2.5,0.4c-0.7,0-1.5,0-2.2-0.2c-0.5-0.1-1-0.3-1.4-0.8
				l-56.9-57.5l-0.7,41.8c-0.2,3,0.7,5.3,2.5,6.9c1.8,1.5,5,2.5,9.5,3c0.2,0,0.4,0.3,0.6,0.9c0.2,0.5,0.3,1.1,0.3,1.7
				c0,0.6-0.1,1.1-0.3,1.6c-0.2,0.6-0.4,0.9-0.6,0.9c-3,0-5.7-0.1-8.2-0.3s-5.1-0.3-7.8-0.3c-2.8,0-5.4,0.1-7.8,0.3
				c-2.4,0.2-4.9,0.3-7.6,0.3c-0.2,0-0.4-0.3-0.6-0.9c-0.2-0.5-0.3-1.1-0.3-1.6c0-0.6,0.1-1.1,0.3-1.6c0.2-0.5,0.5-0.9,0.7-0.9
				c4.4-0.5,7.5-1.4,9.2-2.9c1.7-1.5,2.6-3.8,2.6-6.9l1.9-47.6c0.1-4.2-0.8-7.4-2.6-9.5c-1.8-2.1-5.2-3.5-10.2-4
				c-0.2-0.1-0.4-0.4-0.6-1.1c-0.1-0.5-0.2-1-0.2-1.5c0-0.6,0.1-1.2,0.3-1.7c0.2-0.6,0.4-0.9,0.6-0.9c1.9,0,4.1,0.1,6.7,0.3
				s4.7,0.3,6.3,0.3c1.8,0,3.5-0.1,5.3-0.3c2.1-0.2,4.3-0.3,6.4-0.3l52.4,52.9V15c0-3.2-0.9-5.5-2.8-6.9s-5.1-2.4-9.6-2.9
				c-0.2-0.1-0.4-0.4-0.6-0.9c-0.2-0.5-0.3-1.1-0.3-1.6c0-0.6,0.1-1.1,0.3-1.6c0.2-0.6,0.4-0.9,0.6-0.9c3,0,5.6,0.1,7.8,0.3
				c2.1,0.2,4.6,0.3,7.3,0.3c2.8,0,5.6-0.1,8.3-0.3c2.7-0.2,5.4-0.3,8-0.3c0.2,0,0.4,0.3,0.6,0.9C319,1.4,319.1,2,319.1,2.6z"/>
		</g>
	</g>
	<g id="Ellipse_1" transform="translate(492.621 890)">
		<path id="Tracé_4" class="st1" d="M204.8,172.6c-31.7,55.2-102.2,74.2-157.4,42.5C29.8,204.9,15.1,190.3,5,172.6h4.3
			c31.7,52.8,100.3,69.9,153.1,38.2c15.6-9.4,28.7-22.5,38.2-38.2H204.8z"/>
		<path id="Tracé_5" class="st1" d="M209.8,67.4h-4.1c-26.4-55.7-93-79.4-148.6-53c-23.2,11-41.9,29.7-53,53H0
			C26.4,9.5,94.8-16,152.7,10.4C178,21.9,198.2,42.2,209.8,67.4L209.8,67.4z"/>
	</g>
</g>
</svg>
