<?xml version="1.0" encoding="utf-8"?>
<!-- Generator: Adobe Illustrator 24.1.0, SVG Export Plug-In . SVG Version: 6.00 Build 0)  -->
<svg version="1.1" id="Calque_1" xmlns="http://www.w3.org/2000/svg" xmlns:xlink="http://www.w3.org/1999/xlink" x="0px" y="0px"
	 viewBox="0 0 34.4 39" style="enable-background:new 0 0 34.4 39;" xml:space="preserve">
<path id="etsy" d="M31.7,27.6l-1.3,4.3c-0.7,2.3-2.8,3.8-5.2,3.8H14.9c-1.5,0-2.7-1.2-2.7-2.7c0,0,0,0,0,0V21.5h7.4
	c1.9,0,3.5,1.6,3.5,3.5l0,0v0.9c0,0.3,0.2,0.5,0.5,0.5l0,0h1.5c0.3,0,0.5-0.2,0.5-0.5c0,0,0,0,0,0V12.6c0-0.3-0.2-0.5-0.5-0.5l0,0
	h-1.5c-0.3,0-0.5,0.2-0.5,0.5l0,0V14c0,1.9-1.6,3.5-3.5,3.5l0,0h-7.4V6c0-1.5,1.2-2.7,2.7-2.7h9.7c2.5,0,4.5,2,4.5,4.5v2.7
	c0,0.3,0.2,0.5,0.5,0.5l0,0h1.8c0.3,0,0.5-0.2,0.5-0.4l0.7-9.4c0-0.6-0.4-1.2-1-1.2c0,0-0.1,0-0.1,0H0.8C0.3,0,0,0.3,0,0.8
	c0,0,0,0,0,0v1.7c0,0.4,0.3,0.8,0.8,0.8l0,0h2c1.5,0,2.7,1.2,2.7,2.7l0,0V33c0,1.5-1.2,2.7-2.7,2.7h-2c-0.4,0-0.8,0.3-0.8,0.8v1.7
	C0,38.7,0.3,39,0.8,39h31c0.6,0,1-0.4,1.1-1l1.5-10.2c0-0.3-0.1-0.5-0.4-0.6c0,0,0,0-0.1,0h-1.8C31.9,27.3,31.7,27.4,31.7,27.6z"/>
</svg>
