<?xml version="1.0" encoding="utf-8"?>
<!-- Generator: Adobe Illustrator 24.1.0, SVG Export Plug-In . SVG Version: 6.00 Build 0)  -->
<svg version="1.1" id="FB_Black" xmlns="http://www.w3.org/2000/svg" xmlns:xlink="http://www.w3.org/1999/xlink" x="0px" y="0px"
	 viewBox="0 0 39 39" style="enable-background:new 0 0 39 39;" xml:space="preserve">
<g id="post-facebook">
	<path id="Tracé_6" d="M35.1,0H3.9C1.7,0,0,1.7,0,3.9v31.2C0,37.3,1.7,39,3.9,39h31.2c2.2,0,3.9-1.7,3.9-3.9V3.9
		C39,1.7,37.3,0,35.1,0z M33.2,3.9v5.8h-3.9c-1-0.1-1.9,0.7-2,1.7c0,0.1,0,0.1,0,0.2v3.9h5.8v5.9h-5.8v13.6h-5.8V21.4h-3.9v-5.9h3.9
		v-4.9c0-3.8,3.1-6.8,6.8-6.8H33.2z"/>
</g>
</svg>
