<?xml version="1.0" encoding="utf-8"?>
<!-- Generator: Adobe Illustrator 24.1.0, SVG Export Plug-In . SVG Version: 6.00 Build 0)  -->
<svg version="1.1" id="I_Black" xmlns="http://www.w3.org/2000/svg" xmlns:xlink="http://www.w3.org/1999/xlink" x="0px" y="0px"
	 viewBox="0 0 38.9 38.9" style="enable-background:new 0 0 38.9 38.9;" xml:space="preserve">
<g id="Groupe_4">
	<g id="Groupe_3">
		<path id="Tracé_7" d="M26.7,0H12.1C5.4,0,0,5.4,0,12.1v14.6c0,6.7,5.4,12.1,12.1,12.1h14.6c6.7,0,12.1-5.4,12.1-12.1V12.1
			C38.9,5.4,33.4,0,26.7,0z M35.2,26.7c0,4.7-3.8,8.5-8.5,8.5H12.1c-4.7,0-8.5-3.8-8.5-8.5V12.1c0-4.7,3.8-8.5,8.5-8.5h14.6
			c4.7,0,8.5,3.8,8.5,8.5V26.7z"/>
	</g>
</g>
<g id="Groupe_6" transform="translate(9.719 9.719)">
	<g id="Groupe_5">
		<path id="Tracé_8" d="M9.7,0C4.4,0,0,4.4,0,9.7c0,5.4,4.4,9.7,9.7,9.7c5.4,0,9.7-4.4,9.7-9.7v0C19.4,4.4,15.1,0,9.7,0z M9.7,15.8
			c-3.4,0-6.1-2.7-6.1-6.1c0-3.4,2.7-6.1,6.1-6.1c3.4,0,6.1,2.7,6.1,6.1C15.8,13.1,13.1,15.8,9.7,15.8z"/>
	</g>
</g>
<g id="Groupe_8" transform="translate(28.59 7.695)">
	<g id="Groupe_7">
		<circle id="Ellipse_1" cx="1.3" cy="1.3" r="1.3"/>
	</g>
</g>
</svg>
